<?xml version="1.0" encoding="utf-8"?>
<!-- Generator: Adobe Illustrator 22.0.1, SVG Export Plug-In . SVG Version: 6.00 Build 0)  -->
<svg version="1.1" id="Layer_1" xmlns="http://www.w3.org/2000/svg" xmlns:xlink="http://www.w3.org/1999/xlink" x="0px" y="0px"
	 viewBox="0 0 300 300" style="enable-background:new 0 0 300 300;" xml:space="preserve">
<style type="text/css">
	.st0{fill:#3BBFBB;}
	.st1{fill:#3E90C5;}
	.st2{fill:#00A796;}
</style>
<g>
	<path class="st0" d="M39.3,145.4c1.8,0,3.4,0.3,4.7,1c1.3,0.7,2.4,1.6,3.3,2.8c0.9,1.2,1.5,2.6,1.9,4.2c0.4,1.6,0.6,3.3,0.6,5.1
		v19.8h-7.7v-19.8c0-1.5-0.5-2.8-1.6-3.8c-1-1.1-2.3-1.6-3.8-1.6c-1.5,0-2.8,0.5-3.8,1.6c-1.1,1.1-1.6,2.3-1.6,3.8v19.8h-7.7v-19.8
		c0-1.5-0.5-2.8-1.6-3.8c-0.5-0.6-1.1-1-1.8-1.2c-0.7-0.3-1.4-0.4-2.1-0.4c-1.6,0-2.9,0.5-3.9,1.6c-1.1,1.1-1.6,2.3-1.6,3.8v19.8H5
		v-32h7.7v2.8c1.2-1.1,2.5-2,3.9-2.7c1.4-0.7,2.8-1.1,4.2-1.1c1.9,0,3.5,0.4,4.7,1.2c1.2,0.8,2.3,1.8,3.3,3.2
		c1.2-1.2,2.6-2.3,4.5-3.1C35.2,145.9,37.2,145.4,39.3,145.4z"/>
	<path class="st0" d="M78.4,166.2H61.6c0.4,1,1,1.9,1.9,2.6c0.9,0.9,1.9,1.6,3,2c1.1,0.4,2.3,0.7,3.5,0.7c1.8,0,3.3-0.4,4.7-1.2
		l8,3.2c-1.5,1.8-3.4,3.2-5.6,4.2c-2.2,1-4.5,1.5-7.1,1.5c-2.3,0-4.5-0.4-6.6-1.3c-2-0.9-3.8-2.1-5.4-3.6c-1.5-1.5-2.7-3.3-3.6-5.4
		c-0.9-2.1-1.3-4.2-1.3-6.5c0-2.3,0.4-4.5,1.3-6.6c0.9-2,2.1-3.8,3.6-5.4c1.5-1.5,3.3-2.7,5.4-3.6c2.1-0.9,4.2-1.3,6.6-1.3
		c2.3,0,4.5,0.4,6.6,1.3c2,0.9,3.8,2.1,5.4,3.6c1.5,1.5,2.7,3.3,3.6,5.4c0.9,2.1,1.3,4.3,1.3,6.6c0,1.4-0.2,2.6-0.4,3.8H78.4z
		 M70,153.1c-2.5,0-4.7,0.9-6.5,2.7c-0.8,0.8-1.4,1.7-1.9,2.7h16.8c-0.4-1-1-1.9-1.9-2.7C74.8,154,72.6,153.1,70,153.1z"/>
	<path class="st0" d="M123.3,133.5v44.9h-7.7v-16c0-2.6-0.9-4.8-2.7-6.5c-1.8-1.8-4-2.7-6.5-2.7c-2.6,0-4.7,0.9-6.5,2.7
		c-1.8,1.8-2.7,4-2.7,6.5c0,2.5,0.9,4.7,2.7,6.5c0.9,0.9,1.8,1.6,3,2c1.1,0.4,2.3,0.7,3.6,0.7c1.2,0,2.4-0.2,3.4-0.6l2.8,6.9
		c-2,1-4.2,1.5-6.8,1.5c-2.3,0-4.5-0.4-6.5-1.3c-2-0.9-3.7-2.1-5.2-3.6c-1.5-1.5-2.6-3.3-3.4-5.4c-0.8-2.1-1.2-4.2-1.2-6.5
		c0-2.3,0.4-4.5,1.2-6.6c0.8-2,1.9-3.8,3.4-5.4c1.5-1.5,3.2-2.7,5.2-3.6c2-0.9,4.2-1.3,6.5-1.3c2.1,0,3.9,0.3,5.5,1
		c1.6,0.6,3.1,1.5,4.3,2.4v-15.4H123.3z"/>
	<path class="st1" d="M129.3,159.1v-7.7h24.9v7.7H129.3z"/>
	<path class="st1" d="M176.8,145.4c2.1,0,4,0.4,5.7,1.2c1.7,0.8,3.2,1.9,4.4,3.3c1.2,1.4,2.2,3,2.8,4.8c0.7,1.8,1,3.8,1,5.9v17.7
		H183v-17.7c0-1-0.2-2-0.6-2.9c-0.4-0.9-0.9-1.7-1.7-2.4c-1.5-1.5-3.2-2.2-5.3-2.2c-2.1,0-3.9,0.7-5.3,2.2c-1.5,1.5-2.2,3.2-2.2,5.3
		v17.7h-7.7v-44.8h7.7v15.4c1.2-1,2.5-1.9,3.9-2.5C173.4,145.8,175,145.4,176.8,145.4z"/>
	<g>
		<path class="st2" d="M293.5,126.7c-2.9-7.3-11.6-11.4-23.7-11.4c-8.7,0-18.3,2-27.8,5.9c-10.9,4.4-20.3,10.7-26.6,17.7
			c-0.4,0.4-0.8,0.9-1.1,1.3c1.7,0.3,3.4,0.8,5,1.4c1,0.4,1.9,0.9,2.9,1.5c5-5.3,12.8-10.6,22.8-14.7c8.5-3.4,17.4-5.3,24.9-5.3
			c8.6,0,14.8,2.4,16.4,6.5c2.4,5.8-4.3,15.9-17.6,24c0,0,0,0.1,0,0.1c1,2.5,1.5,5.2,1.6,8c6.6-3.7,12.4-8.1,16.6-12.9
			C293.8,141.1,296.2,133.2,293.5,126.7z"/>
	</g>
	<path class="st2" d="M210.5,145.4c2.3,0,4.5,0.4,6.6,1.3c2.1,0.9,3.8,2.1,5.4,3.6c1.5,1.5,2.7,3.3,3.6,5.4c0.9,2.1,1.3,4.3,1.3,6.6
		c0,2.3-0.4,4.5-1.3,6.5c-0.9,2.1-2.1,3.8-3.6,5.4c-1.5,1.5-3.3,2.7-5.4,3.6c-2,0.9-4.2,1.3-6.6,1.3c-2.3,0-4.5-0.4-6.6-1.3
		c-2-0.9-3.8-2.1-5.4-3.6c-1.5-1.5-2.7-3.3-3.6-5.4c-0.9-2.1-1.3-4.2-1.3-6.5c0-2.3,0.4-4.5,1.3-6.6c0.9-2,2.1-3.8,3.6-5.4
		c1.5-1.5,3.3-2.7,5.4-3.6C206,145.9,208.2,145.4,210.5,145.4z M210.5,153.1c-2.6,0-4.7,0.9-6.5,2.7c-1.8,1.8-2.7,4-2.7,6.5
		c0,2.5,0.9,4.7,2.7,6.5c0.9,0.9,1.8,1.6,3,2c1.1,0.4,2.3,0.7,3.6,0.7c1.2,0,2.4-0.2,3.5-0.7c1.1-0.4,2.1-1.1,3-2
		c1.8-1.8,2.7-4,2.7-6.5c0-2.6-0.9-4.7-2.7-6.5C215.2,154,213,153.1,210.5,153.1z"/>
	<path class="st1" d="M248.5,145.4c2.3,0,4.5,0.4,6.5,1.3c2,0.9,3.7,2.1,5.2,3.6c1.5,1.5,2.6,3.3,3.4,5.4c0.8,2.1,1.2,4.3,1.2,6.6
		c0,2.3-0.4,4.5-1.2,6.5c-0.8,2.1-1.9,3.8-3.4,5.4c-1.5,1.5-3.2,2.7-5.2,3.6c-2,0.9-4.2,1.3-6.5,1.3c-2.6,0-4.9-0.5-6.9-1.5l2.8-6.9
		c1,0.4,2.2,0.6,3.5,0.6c1.2,0,2.4-0.2,3.5-0.7c1.1-0.4,2.1-1.1,3-2c1.8-1.8,2.7-4,2.7-6.5c0-2.6-0.9-4.7-2.7-6.5
		c-1.9-1.8-4.1-2.7-6.5-2.7c-2.6,0-4.7,0.9-6.5,2.7c-1.8,1.8-2.7,4-2.7,6.5v13.5v15.4h-7.7v-44.9h7.7v2.6c1.2-1,2.7-1.8,4.3-2.4
		C244.6,145.8,246.4,145.4,248.5,145.4z"/>
	<g>
		<path class="st2" d="M199.9,132.2c2.8-1,5.7-1.6,8.6-1.7c-1.3-1.6-12.7-15.9-27-29.5c-20.9-19.8-37.4-27.8-49.1-23.8
			c-11.4,3.9-16.9,18-16.9,43.1h7.8c0-20.8,4-33.1,11.7-35.8c8.4-2.9,23,4.9,41.1,22C186.6,116.5,195.6,127,199.9,132.2z"/>
		<path class="st2" d="M125.1,118.4c0,1.2-1,2.3-2.3,2.3h-6.9c-1.2,0-2.3-1-2.3-2.3l0,0c0-1.2,1-2.3,2.3-2.3h6.9
			C124.1,116.2,125.1,117.2,125.1,118.4L125.1,118.4z"/>
	</g>
	<g>
		<path class="st2" d="M198,191.7c-2.1-0.9-4-1.9-5.8-3.2c-4.5,5-10,11-16.1,16.7c-18.1,17.1-32.7,25-41.2,22.1
			c-7.6-2.6-11.7-15-11.7-35.8h-7.8c0,25.1,5.5,39.2,16.9,43.1c1.9,0.7,4,1,6.2,1c11,0,25.4-8.3,42.8-24.8
			c6.9-6.5,13.2-13.3,17.9-18.6C198.9,192.1,198.5,191.9,198,191.7z"/>
		<path class="st2" d="M125.1,193.4c0,1.2-1,2.3-2.3,2.3h-6.9c-1.2,0-2.3-1-2.3-2.3l0,0c0-1.2,1-2.3,2.3-2.3h6.9
			C124.1,191.1,125.1,192.1,125.1,193.4L125.1,193.4z"/>
	</g>
</g>
</svg>
